Coordinates
version=1
nRows=29
nColumns=24
inDegrees=yes

Units are S.I. units (second, meters, Newtons, ...)
Angles are in degrees.

endheader
time	pelvis_tilt	pelvis_list	pelvis_rotation	pelvis_tx	pelvis_ty	pelvis_tz	hip_flexion_r	hip_adduction_r	hip_rotation_r	knee_angle_r	ankle_angle_r	subtalar_angle_r	mtp_angle_r	hip_flexion_l	hip_adduction_l	hip_rotation_l	knee_angle_l	ankle_angle_l	subtalar_angle_l	mtp_angle_l	lumbar_extension	lumbar_bending	lumbar_rotation
      0.78150000	      0.36156960	     -1.12036421	      2.17689714	     -0.47332049	      0.99704047	      0.31795360	      9.05512911	      5.04175655	     -4.77430596	    -15.60091804	      9.07653209	     -6.78123662	      1.90258746	     18.27868621	     -0.80753620	      0.66784765	    -69.55386322	     -7.15674170	     -7.43620826	      0.56726083	      0.17890542	      4.77743544	      2.75049073
      0.78566667	      0.36882637	     -1.04890988	      2.10649306	     -0.46830367	      0.99763306	      0.31827677	      8.57263741	      4.99471032	     -4.78341227	    -15.31224895	      9.19004898	     -6.63820456	      1.91993315	     18.83780802	     -0.69862055	      0.64502684	    -69.35191252	     -6.48899963	     -7.66714338	      0.54610493	      0.13595739	      4.69676468	      2.84615887
      0.78983333	      0.38341290	     -0.96728652	      2.02799554	     -0.46327616	      0.99821203	      0.31860547	      8.08038225	      4.93695750	     -4.78167183	    -15.01991922	      9.30925335	     -6.45815589	      1.93902427	     19.36743171	     -0.58354214	      0.60782105	    -69.08658535	     -5.80330157	     -7.84838256	      0.52451329	      0.08495490	      4.60756074	      2.98914903
      0.79400000	      0.40834499	     -0.87696016	      1.94171460	     -0.45825555	      0.99878196	      0.31893076	      7.57928124	      4.86931095	     -4.76523218	    -14.73124671	      9.42797354	     -6.27623910	      1.95731174	     19.86585243	     -0.45955968	      0.56386161	    -68.75951339	     -5.11876515	     -8.02862028	      0.50453636	      0.01911911	      4.52314326	      3.13995714
      0.79816667	      0.42749270	     -0.80250681	      1.85100245	     -0.45324878	      0.99926421	      0.31929075	      7.09081792	      4.82111378	     -4.75221266	    -14.44971275	      9.54963357	     -6.07763161	      1.97817897	     20.36603729	     -0.36976933	      0.50062413	    -68.40155983	     -4.42965329	     -8.18400242	      0.47984175	     -0.03373469	      4.43024343	      3.32088532
      0.80233333	      0.46352040	     -0.69829296	      1.75903181	     -0.44822048	      0.99979051	      0.31961552	      6.57661090	      4.73649165	     -4.73614467	    -14.15618799	      9.67826257	     -5.82111703	      2.01335746	     20.81485098	     -0.23792746	      0.44376091	    -67.95895699	     -3.76937327	     -8.30141823	      0.42188267	     -0.11032990	      4.32992113	      3.58818512
      0.80650000	      0.43320995	     -0.62324855	      1.65697667	     -0.44326326	      1.00014582	      0.31995206	      6.15658063	      4.68634432	     -4.67644310	    -13.89710874	      9.78476267	     -5.70839630	      2.02743497	     21.34085425	     -0.13943207	      0.38057670	    -67.49845218	     -3.11489855	     -8.50506879	      0.40500321	     -0.11638478	      4.24918092	      3.67395917
      0.81066667	      0.44463744	     -0.54386056	      1.53315393	     -0.43826648	      1.00052471	      0.32034066	      5.68898566	      4.63384961	     -4.61803832	    -13.63691081	      9.89986763	     -5.54880408	      2.04970860	     21.79348584	     -0.06611249	      0.26984809	    -66.97861610	     -2.44240400	     -8.62007068	      0.36532097	     -0.15396890	      4.15601001	      3.87711685
      0.81483333	      0.40075371	     -0.46323313	      1.43186000	     -0.43333762	      1.00077668	      0.32067187	      5.28459746	      4.57849347	     -4.53138506	    -13.37339959	     10.00744103	     -5.43433136	      2.06219499	     22.30544502	      0.03791424	      0.21122343	    -66.42117728	     -1.83612373	     -8.78539470	      0.34592244	     -0.15781822	      4.06789057	      3.98607425
      0.81900000	      0.41148074	     -0.38226148	      1.29108317	     -0.42835013	      1.00107850	      0.32105570	      4.82642269	      4.52157932	     -4.45403041	    -13.12651197	     10.11661096	     -5.28879957	      2.08238453	     22.72178043	      0.10443283	      0.08203715	    -65.79774388	     -1.21571426	     -8.87835052	      0.29568325	     -0.19182565	      3.98127648	      4.21470473
      0.82316667	      0.36058145	     -0.30648428	      1.18509638	     -0.42342543	      1.00123480	      0.32138138	      4.43372729	      4.46989794	     -4.35787633	    -12.86921127	     10.22023343	     -5.17994374	      2.09411451	     23.20968018	      0.19466454	      0.01231607	    -65.14853573	     -0.66713632	     -9.02313900	      0.26767360	     -0.18891198	      3.88983687	      4.32630766
      0.82733333	      0.34997609	     -0.23721264	      1.04975973	     -0.41845934	      1.00141605	      0.32175521	      3.99776329	      4.42581829	     -4.26080623	    -12.61380572	     10.32654447	     -5.04785324	      2.11808617	     23.62366881	      0.24808158	     -0.10609958	    -64.44136673	     -0.13260144	     -9.08621737	      0.17109435	     -0.20731614	      3.81234210	      4.60955511
      0.83150000	      0.29775001	     -0.17226037	      0.93144825	     -0.41354259	      1.00149190	      0.32207380	      3.61641991	      4.38289280	     -4.15662256	    -12.37233326	     10.41890504	     -4.96197267	      2.12734599	     24.07739688	      0.31729694	     -0.18979802	    -63.69911565	      0.35100242	     -9.22783062	      0.13804739	     -0.19298744	      3.74022106	      4.67405761
      0.83566667	      0.28228986	     -0.10327569	      0.78093629	     -0.40859834	      1.00158319	      0.32243610	      3.19518870	      4.33649937	     -4.02622619	    -12.13277878	     10.50546031	     -4.87162113	      2.14144158	     24.46055730	      0.36273566	     -0.32522512	    -62.89758992	      0.80895376	     -9.31015466	      0.05696015	     -0.21264322	      3.66826617	      4.85679589
      0.83983333	      0.23271317	     -0.03892032	      0.65436774	     -0.40367851	      1.00158195	      0.32274756	      2.81311647	      4.29224925	     -3.90837735	    -11.89354432	     10.59296471	     -4.79197883	      2.15255225	     24.87225544	      0.42276007	     -0.42109027	    -62.05912964	      1.20518276	     -9.41613455	     -0.01657945	     -0.19654435	      3.60103717	      4.98519843
      0.84400000	      0.20946342	      0.02791687	      0.52569167	     -0.39873935	      1.00158972	      0.32306056	      2.39530080	      4.24448057	     -3.79017733	    -11.64037724	     10.67992593	     -4.71760681	      2.16414387	     25.23166561	      0.47732578	     -0.52957755	    -61.16832333	      1.54950898	     -9.51425052	     -0.11421168	     -0.21174785	      3.52334190	      5.13658684
      0.84816667	      0.13519234	      0.06784700	      0.42988946	     -0.39381191	      1.00146493	      0.32332712	      2.03037202	      4.22494671	     -3.69396957	    -11.37971809	     10.77558108	     -4.63977372	      2.17038866	     25.64532511	      0.52136499	     -0.58708709	    -60.26049985	      1.85403423	     -9.60251549	     -0.15482574	     -0.17049675	      3.47379328	      5.19707933
      0.85233333	      0.12274402	      0.13679343	      0.28184973	     -0.38888022	      1.00141696	      0.32363781	      1.61100371	      4.17144189	     -3.54595368	    -11.14491729	     10.84338786	     -4.57434239	      2.17838356	     25.94705823	      0.56943049	     -0.71119975	    -59.26885554	      2.11269443	     -9.70885453	     -0.24927241	     -0.19687908	      3.40491025	      5.34138354
      0.85650000	      0.09539463	      0.17525760	      0.17129618	     -0.38393601	      1.00128337	      0.32390358	      1.19256406	      4.15085041	     -3.42966153	    -10.87914779	     10.92447187	     -4.52058845	      2.18614815	     26.26190546	      0.59772830	     -0.79646567	    -58.26117142	      2.33573987	     -9.80257237	     -0.35876009	     -0.20488591	      3.36083601	      5.46724114
      0.86066667	      0.06801901	      0.22898171	      0.06148999	     -0.37898259	      1.00114477	      0.32414926	      0.77067445	      4.11100554	     -3.31194069	    -10.60559713	     11.00602567	     -4.47038621	      2.19268758	     26.54977887	      0.64535243	     -0.88197749	    -57.19419650	      2.51082147	     -9.90214434	     -0.46748244	     -0.22157325	      3.30005835	      5.56699931
      0.86483333	      0.03212781	      0.25697849	     -0.04049938	     -0.37404241	      1.00092032	      0.32438330	      0.36426374	      4.09748095	     -3.20541403	    -10.34414231	     11.09059841	     -4.42723417	      2.19900036	     26.83627749	      0.66532515	     -0.95570195	    -56.10123175	      2.65248147	     -9.99724760	     -0.58815748	     -0.21054881	      3.26863958	      5.66108436
      0.86900000	      0.01797762	      0.29697927	     -0.13600039	     -0.36907545	      1.00070821	      0.32459631	     -0.07584143	      4.06894018	     -3.10766584	    -10.06446924	     11.18027332	     -4.38529811	      2.20434624	     27.07357399	      0.69985867	     -1.03235063	    -54.95690189	      2.75948037	    -10.09487563	     -0.71515738	     -0.24057886	      3.22258146	      5.74318702
      0.87316667	     -0.01441347	      0.31608274	     -0.22018002	     -0.36411112	      1.00042752	      0.32479184	     -0.49515532	      4.06230858	     -3.01782101	     -9.78732622	     11.27308035	     -4.33832436	      2.20882363	     27.31491982	      0.71710821	     -1.09060749	    -53.77811655	      2.84719237	    -10.17757263	     -0.83029319	     -0.23385707	      3.20053816	      5.80494713
      0.87733333	     -0.00533562	      0.33251313	     -0.27725644	     -0.35911776	      1.00017143	      0.32494714	     -0.98144140	      4.05755561	     -2.96622866	     -9.46604112	     11.36449138	     -4.33177788	      2.21296465	     27.49202654	      0.74065748	     -1.13572303	    -52.55860976	      2.89417725	    -10.28960760	     -1.05197272	     -0.28331733	      3.18534627	      5.89759889
      0.88150000	     -0.09420815	      0.32990967	     -0.34718776	     -0.35415589	      0.99971975	      0.32511876	     -1.33419068	      4.07258582	     -2.89176434	     -9.20021995	     11.49011519	     -4.25321956	      2.21698112	     27.76482718	      0.73605549	     -1.18138672	    -51.32015017	      2.97164300	    -10.29534302	     -1.09782145	     -0.19984335	      3.18115484	      5.90705660
      0.88566667	     -0.06984594	      0.36989383	     -0.44632780	     -0.34917163	      0.99943525	      0.32528876	     -1.81045246	      4.03311759	     -2.80890167	     -8.93556375	     11.59244385	     -4.22206614	      2.21867488	     27.86536046	      0.76597114	     -1.28162399	    -49.98678745	      2.94410913	    -10.42958163	     -1.21636079	     -0.28539466	      3.14063075	      5.95135136
      0.88983333	     -0.07969256	      0.37604282	     -0.50072957	     -0.34416661	      0.99904744	      0.32542244	     -2.26593882	      4.03392643	     -2.77140242	     -8.64043255	     11.70817229	     -4.17695228	      2.21998247	     27.99712223	      0.77707242	     -1.33049603	    -48.64282083	      2.93778868	    -10.50813533	     -1.33808329	     -0.30509177	      3.12749531	      5.98989767
      0.89400000	     -0.10457778	      0.36510332	     -0.55169955	     -0.33916447	      0.99858765	      0.32553811	     -2.70209755	      4.05102073	     -2.74173905	     -8.35151874	     11.83496984	     -4.13011187	      2.22044767	     28.13258560	      0.76698913	     -1.38797081	    -47.27736410	      2.92602315	    -10.55992491	     -1.45657655	     -0.31439197	      3.14486982	      6.01397128
      0.89816667	     -0.10836446	      0.37082739	     -0.60055171	     -0.33414175	      0.99813895	      0.32565011	     -3.15742524	      4.04770277	     -2.73373479	     -8.07520374	     11.97126543	     -4.07362655	      2.22033494	     28.21405685	      0.77647987	     -1.45125174	    -45.85510629	      2.89462351	    -10.61325994	     -1.57792556	     -0.34049726	      3.13045505	      6.03184269
